<svg width="21" height="18" viewBox="0 0 21 18" fill="none" xmlns="http://www.w3.org/2000/svg">
<path d="M10.6667 11C11.7713 11 12.6667 10.1046 12.6667 9C12.6667 7.89543 11.7713 7 10.6667 7C9.56218 7 8.66675 7.89543 8.66675 9C8.66675 10.1046 9.56218 11 10.6667 11Z" fill="#657194"/>
<path d="M10.6667 4C11.7713 4 12.6667 3.10457 12.6667 2C12.6667 0.89543 11.7713 0 10.6667 0C9.56218 0 8.66675 0.89543 8.66675 2C8.66675 3.10457 9.56218 4 10.6667 4Z" fill="#657194"/>
<path d="M10.6667 18C11.7713 18 12.6667 17.1046 12.6667 16C12.6667 14.8954 11.7713 14 10.6667 14C9.56218 14 8.66675 14.8954 8.66675 16C8.66675 17.1046 9.56218 18 10.6667 18Z" fill="#657194"/>
<path d="M18.6667 11C19.7713 11 20.6667 10.1046 20.6667 9C20.6667 7.89543 19.7713 7 18.6667 7C17.5622 7 16.6667 7.89543 16.6667 9C16.6667 10.1046 17.5622 11 18.6667 11Z" fill="#657194"/>
<path d="M2.66675 11C3.77132 11 4.66675 10.1046 4.66675 9C4.66675 7.89543 3.77132 7 2.66675 7C1.56218 7 0.666748 7.89543 0.666748 9C0.666748 10.1046 1.56218 11 2.66675 11Z" fill="#657194"/>
<path d="M18.6667 4C19.7713 4 20.6667 3.10457 20.6667 2C20.6667 0.89543 19.7713 0 18.6667 0C17.5622 0 16.6667 0.89543 16.6667 2C16.6667 3.10457 17.5622 4 18.6667 4Z" fill="#657194"/>
<path d="M2.66675 4C3.77132 4 4.66675 3.10457 4.66675 2C4.66675 0.89543 3.77132 0 2.66675 0C1.56218 0 0.666748 0.89543 0.666748 2C0.666748 3.10457 1.56218 4 2.66675 4Z" fill="#657194"/>
<path d="M18.6667 18C19.7713 18 20.6667 17.1046 20.6667 16C20.6667 14.8954 19.7713 14 18.6667 14C17.5622 14 16.6667 14.8954 16.6667 16C16.6667 17.1046 17.5622 18 18.6667 18Z" fill="#657194"/>
<path d="M2.66675 18C3.77132 18 4.66675 17.1046 4.66675 16C4.66675 14.8954 3.77132 14 2.66675 14C1.56218 14 0.666748 14.8954 0.666748 16C0.666748 17.1046 1.56218 18 2.66675 18Z" fill="#657194"/>
</svg>
