<svg width="32" height="32" viewBox="0 0 32 32" fill="none" xmlns="http://www.w3.org/2000/svg">
<rect width="32" height="32" rx="10" fill="#65AEFD"/>
<path d="M20 25V23C20 21.9391 19.5786 20.9217 18.8284 20.1716C18.0783 19.4214 17.0609 19 16 19H9C7.93913 19 6.92172 19.4214 6.17157 20.1716C5.42143 20.9217 5 21.9391 5 23V25" stroke="white" stroke-width="1.5" stroke-linecap="round" stroke-linejoin="round"/>
<path d="M12.5 15C14.7091 15 16.5 13.2091 16.5 11C16.5 8.79086 14.7091 7 12.5 7C10.2909 7 8.5 8.79086 8.5 11C8.5 13.2091 10.2909 15 12.5 15Z" stroke="white" stroke-width="1.5" stroke-linecap="round" stroke-linejoin="round"/>
<path d="M21 15L23 17L27 13" stroke="white" stroke-width="1.5" stroke-linecap="round" stroke-linejoin="round"/>
</svg>
