<svg width="60" height="50" viewBox="0 0 60 50" fill="none" xmlns="http://www.w3.org/2000/svg">
<path d="M60 44.4653C49.2882 41.6631 50.1984 23.9388 47.888 15.532C44.1774 2.01108 33.8856 -2.19231 20.3734 1.03029C-4.34072 6.63481 -8.54142 43.5546 18.9732 49.1591C27.7946 50.9806 51.1085 46.7772 60 44.4653Z" fill="#F57A20"/>
<path d="M15.375 19.3102C15.7474 18.8633 16.3771 18.6398 17.2641 18.6398C18.2797 18.6398 18.8789 19.1612 19.0617 20.2039C19.1836 20.9419 19.1971 22.0253 19.1023 23.4539C19.1971 23.9076 19.5221 24.1344 20.0773 24.1344C20.6732 24.1344 21.0625 23.8839 21.2453 23.3828C21.2724 22.1099 21.2859 21.4328 21.2859 21.3516C21.3266 20.5594 21.4214 19.8925 21.5703 19.3508C21.7125 18.8633 22.2474 18.6195 23.175 18.6195C23.9672 18.6195 24.4953 18.8227 24.7594 19.2289C25.1182 20.5898 25.2977 23.112 25.2977 26.7953C25.2977 28.725 25.2503 30.6242 25.1555 32.493C25.0404 32.8044 24.7763 33.0482 24.3633 33.2242C24.018 33.3664 23.649 33.4375 23.2562 33.4375C22.3693 33.4375 21.831 33.1464 21.6414 32.5641C21.4857 31.7177 21.374 30.482 21.3062 28.857C21.2792 28.3289 20.9677 28.0648 20.3719 28.0648C19.7151 28.0648 19.3867 28.3425 19.3867 28.8977C19.4003 30.5633 19.3732 31.5552 19.3055 31.8734C19.0549 32.9432 18.3914 33.4781 17.3148 33.4781C16.9086 33.4781 16.5125 33.407 16.1266 33.2648C15.6255 33.0888 15.3547 32.8315 15.3141 32.493C15.05 30.6784 14.918 28.3695 14.918 25.5664C14.918 22.5195 15.0703 20.4341 15.375 19.3102Z" fill="white"/>
<path d="M27.3695 19.3508C27.6201 18.8971 28.2294 18.6703 29.1977 18.6703C30.2539 18.6703 30.9276 18.9242 31.2187 19.432C31.4422 19.8383 31.5539 22.1742 31.5539 26.4398C31.5539 30.218 31.4625 32.3982 31.2797 32.9805C31.0833 33.4341 30.4096 33.6609 29.2586 33.6609C28.2091 33.6609 27.593 33.4544 27.4102 33.0414C27.1055 32.344 26.9531 29.876 26.9531 25.6375C26.9531 21.8188 27.0919 19.7232 27.3695 19.3508Z" fill="white"/>
<path d="M33.6156 19.432C33.9203 18.7685 34.5872 18.4367 35.6164 18.4367C36.0633 18.4367 36.4661 18.5214 36.825 18.6906C37.2786 18.9073 37.5292 19.212 37.5766 19.6047C37.6578 19.7536 37.6984 20.0719 37.6984 20.5594C37.6984 21.4057 37.5799 22.655 37.343 24.307C37.0789 26.1352 36.8115 27.3234 36.5406 27.8719C36.2698 28.4203 35.9279 28.6945 35.5148 28.6945C35.1086 28.6945 34.7701 28.3898 34.4992 27.7805C34.2352 27.1643 33.9846 26.0065 33.7477 24.307C33.5378 22.7904 33.4328 21.5818 33.4328 20.6813C33.4328 20.0177 33.4937 19.6013 33.6156 19.432ZM33.5141 31.518C33.5953 30.2992 34.3164 29.6966 35.6773 29.7102C36.1919 29.7237 36.5745 29.8422 36.825 30.0656C37.0755 30.2891 37.2617 30.6479 37.3836 31.1422C37.4242 31.325 37.4445 31.501 37.4445 31.6703C37.4445 32.2661 37.2482 32.7299 36.8555 33.0617C36.4628 33.3935 35.9583 33.5594 35.3422 33.5594C34.8073 33.5594 34.357 33.3563 33.9914 32.95C33.6326 32.537 33.4734 32.0596 33.5141 31.518Z" fill="white"/>
</svg>
