<svg width="16" height="16" viewBox="0 0 16 16" fill="none" xmlns="http://www.w3.org/2000/svg">
<path d="M11.333 1.99999C11.5081 1.8249 11.716 1.686 11.9447 1.59124C12.1735 1.49648 12.4187 1.44771 12.6663 1.44771C12.914 1.44771 13.1592 1.49648 13.3879 1.59124C13.6167 1.686 13.8246 1.8249 13.9997 1.99999C14.1748 2.17509 14.3137 2.38296 14.4084 2.61173C14.5032 2.84051 14.552 3.0857 14.552 3.33333C14.552 3.58095 14.5032 3.82615 14.4084 4.05492C14.3137 4.28369 14.1748 4.49156 13.9997 4.66666L4.99967 13.6667L1.33301 14.6667L2.33301 11L11.333 1.99999Z" stroke="#A3ABC4" stroke-width="1.5" stroke-linecap="round" stroke-linejoin="round"/>
</svg>
