<svg width="176" height="120" viewBox="0 0 176 120" fill="none" xmlns="http://www.w3.org/2000/svg">
<path d="M87.7037 111.785C117.404 111.785 141.604 87.6854 141.604 58.0854C141.504 28.3854 117.404 4.2854 87.7037 4.2854C57.9037 4.2854 33.8037 28.3855 33.8037 57.9855C33.8037 87.6855 57.9037 111.785 87.7037 111.785Z" fill="#EAEEF9"/>
<g filter="url(#filter0_d_653_11274)">
<path d="M145.204 64.8854C145.204 76.3854 135.904 85.6854 124.304 85.6854C124.104 85.6854 122.404 85.6854 109.904 85.6854C101.204 85.6854 87.3039 85.6854 65.1039 85.6854H54.5039C40.6039 85.9855 29.5039 74.8855 29.5039 61.4855C29.5039 47.9855 40.7039 36.7855 54.8039 37.4855C66.9039 -0.314507 122.304 4.98547 127.004 44.0855C137.404 45.3855 145.204 54.1854 145.204 64.8854Z" fill="url(#paint0_linear_653_11274)"/>
</g>
<path d="M124.303 85.6854C135.803 85.6854 145.203 76.3854 145.203 64.8854C145.203 53.3854 135.803 44.0854 124.303 44.0854C112.803 44.0854 103.403 53.3854 103.403 64.8854C103.403 76.3854 112.803 85.6854 124.303 85.6854Z" fill="url(#paint1_linear_653_11274)"/>
<path d="M90.2039 85.8854C110.704 85.8854 127.404 69.2854 127.404 48.7854C127.404 28.2854 110.704 11.6854 90.2039 11.6854C69.7039 11.6854 53.0039 28.2854 53.0039 48.7854C53.0039 69.2854 69.6039 85.8854 90.2039 85.8854Z" fill="url(#paint2_linear_653_11274)"/>
<path d="M76.4451 58.3054C78.0201 58.3054 79.3521 56.9654 79.3521 55.3954C79.3521 53.8154 78.0201 52.4855 76.4451 52.4855C74.8701 52.4855 73.5381 53.8154 73.5381 55.3954C73.5381 56.9654 74.8701 58.3054 76.4451 58.3054Z" fill="#989FB0"/>
<path d="M98.7312 58.3054C100.306 58.3054 101.638 56.9654 101.638 55.3954C101.638 53.8154 100.306 52.4855 98.7312 52.4855C97.1572 52.4855 95.8242 53.8154 95.8242 55.3954C95.8242 57.0954 97.1572 58.3054 98.7312 58.3054Z" fill="#989FB0"/>
<path d="M76.3305 45.7754L69.9365 49.2255L70.7995 50.8254L77.1945 47.3754L76.3305 45.7754Z" fill="#989FB0"/>
<path d="M98.3366 45.7355L97.4736 47.3254L103.87 50.7854L104.733 49.1854L98.3366 45.7355Z" fill="#989FB0"/>
<path d="M87.5883 65.0854C89.4613 65.0854 90.9793 63.9454 90.9793 62.5454C90.9793 61.1354 89.4613 59.9954 87.5883 59.9954C85.7153 59.9954 84.1963 61.1354 84.1963 62.5454C84.1963 63.9454 85.7153 65.0854 87.5883 65.0854Z" fill="#989FB0"/>
<path d="M17.9574 18.6354C17.9574 18.6354 3.97944 22.1854 8.21544 25.0254C12.4514 27.7254 22.4764 32.4054 31.9364 29.2854C41.3964 26.1654 31.9364 21.7654 32.0774 21.7654C32.2184 21.7654 17.9574 18.6354 17.9574 18.6354Z" fill="#CED7E2"/>
<path d="M0.873047 17.5054C5.95705 19.0654 21.629 16.5055 31.654 9.97546C39.562 19.7755 42.527 22.3255 45.351 22.6155C40.974 27.0155 26.43 34.1154 18.241 24.8854C8.63904 30.9854 0.873047 17.5054 0.873047 17.5054Z" fill="#E9EDF9"/>
<path d="M130.942 52.9954C136.307 53.2854 150.85 46.7554 158.757 37.9554C168.924 45.4754 172.312 47.1754 175.278 46.7554C172.03 52.1454 162.146 63.9254 148.168 64.7854C138.001 58.8154 130.942 52.9954 130.942 52.9954Z" fill="#E9EDF9"/>
<path d="M88.1114 119.585C87.0494 114.325 77.1024 101.865 66.6084 96.3954C71.3634 84.6754 72.1694 80.9754 71.0174 78.2054C77.0514 80.0054 90.9254 86.6455 95.2324 99.9755C91.9894 111.305 88.1114 119.585 88.1114 119.585Z" fill="white"/>
<defs>
<filter id="filter0_d_653_11274" x="7.50391" y="0.775879" width="159.7" height="117.915" filterUnits="userSpaceOnUse" color-interpolation-filters="sRGB">
<feFlood flood-opacity="0" result="BackgroundImageFix"/>
<feColorMatrix in="SourceAlpha" type="matrix" values="0 0 0 0 0 0 0 0 0 0 0 0 0 0 0 0 0 0 127 0" result="hardAlpha"/>
<feOffset dy="11"/>
<feGaussianBlur stdDeviation="11"/>
<feColorMatrix type="matrix" values="0 0 0 0 0.397708 0 0 0 0 0.47749 0 0 0 0 0.575 0 0 0 0.27 0"/>
<feBlend mode="normal" in2="BackgroundImageFix" result="effect1_dropShadow_653_11274"/>
<feBlend mode="normal" in="SourceGraphic" in2="effect1_dropShadow_653_11274" result="shape"/>
</filter>
<linearGradient id="paint0_linear_653_11274" x1="87.3539" y1="42.3155" x2="87.3159" y2="86.4854" gradientUnits="userSpaceOnUse">
<stop stop-color="white"/>
<stop offset="0.9964" stop-color="#ECF0F5"/>
</linearGradient>
<linearGradient id="paint1_linear_653_11274" x1="101.179" y1="39.6055" x2="119.706" y2="59.8655" gradientUnits="userSpaceOnUse">
<stop stop-color="#BCCBE1"/>
<stop offset="0.9942" stop-color="white" stop-opacity="0"/>
</linearGradient>
<linearGradient id="paint2_linear_653_11274" x1="49.5199" y1="31.7554" x2="78.7219" y2="43.1854" gradientUnits="userSpaceOnUse">
<stop stop-color="#E2E8F0"/>
<stop offset="0.9942" stop-color="white" stop-opacity="0"/>
</linearGradient>
</defs>
</svg>
