<svg width="24" height="24" viewBox="0 0 24 24" fill="none" xmlns="http://www.w3.org/2000/svg">
<path d="M12.667 15C13.7716 15 14.667 14.1046 14.667 13C14.667 11.8954 13.7716 11 12.667 11C11.5624 11 10.667 11.8954 10.667 13C10.667 14.1046 11.5624 15 12.667 15Z" fill="#657194"/>
<path d="M12.667 8C13.7716 8 14.667 7.10457 14.667 6C14.667 4.89543 13.7716 4 12.667 4C11.5624 4 10.667 4.89543 10.667 6C10.667 7.10457 11.5624 8 12.667 8Z" fill="#657194"/>
<path d="M12.667 22C13.7716 22 14.667 21.1046 14.667 20C14.667 18.8954 13.7716 18 12.667 18C11.5624 18 10.667 18.8954 10.667 20C10.667 21.1046 11.5624 22 12.667 22Z" fill="#657194"/>
<path d="M20.667 15C21.7716 15 22.667 14.1046 22.667 13C22.667 11.8954 21.7716 11 20.667 11C19.5624 11 18.667 11.8954 18.667 13C18.667 14.1046 19.5624 15 20.667 15Z" fill="#657194"/>
<path d="M4.66699 15C5.77156 15 6.66699 14.1046 6.66699 13C6.66699 11.8954 5.77156 11 4.66699 11C3.56242 11 2.66699 11.8954 2.66699 13C2.66699 14.1046 3.56242 15 4.66699 15Z" fill="#657194"/>
<path d="M20.667 8C21.7716 8 22.667 7.10457 22.667 6C22.667 4.89543 21.7716 4 20.667 4C19.5624 4 18.667 4.89543 18.667 6C18.667 7.10457 19.5624 8 20.667 8Z" fill="#657194"/>
<path d="M4.66699 8C5.77156 8 6.66699 7.10457 6.66699 6C6.66699 4.89543 5.77156 4 4.66699 4C3.56242 4 2.66699 4.89543 2.66699 6C2.66699 7.10457 3.56242 8 4.66699 8Z" fill="#657194"/>
<path d="M20.667 22C21.7716 22 22.667 21.1046 22.667 20C22.667 18.8954 21.7716 18 20.667 18C19.5624 18 18.667 18.8954 18.667 20C18.667 21.1046 19.5624 22 20.667 22Z" fill="#657194"/>
<path d="M4.66699 22C5.77156 22 6.66699 21.1046 6.66699 20C6.66699 18.8954 5.77156 18 4.66699 18C3.56242 18 2.66699 18.8954 2.66699 20C2.66699 21.1046 3.56242 22 4.66699 22Z" fill="#657194"/>
</svg>
